# xmcd
#
# Track frame offsets:
#	150
#	12520
#	35494
#	44958
#	56363
#	66386
#	79949
#	91998
#	104282
#	115528
#	127882
#	139305
#	149577
#	159548
#	172872
#	183846
#	194794
#	205635
#	218614
#	228248
#	238901
#	250329
#	258869
#	268939
#	280185
#
# Disc length: 3898 seconds
#
# Revision: 0
# Processed by: cddbd v1.5.2PL0 Copyright (c) Steve Scherf et al.
# Submitted via: EZCDAudioConverter 7.0.6.1
#
DISCID=730f3819
DTITLE=Vintage Collection: Rhythm and Blues
DYEAR=1900
DGENRE=
TTITLE0=James Brown with the Famous Flames - Please, Please, Please
TTITLE1=Ray Charles - What'd I Say
TTITLE2=Sam Cooke - Wonderful World
TTITLE3=the Isley Brothers - Twist and Shout
TTITLE4=Marvin Gaye - Wherever I Lay My Hat
TTITLE5=the Miracles - You Really Got a Hold on Me
TTITLE6=the Shirelles - Will You Love Me Tomorrow
TTITLE7=Jackie Wilson - Lonely Teardrops
TTITLE8=the Marvelettes - Please, Mr. Postman
TTITLE9=Mary Wells - You Beat Me to the Punch
TTITLE10=the Supremes - Buttered Popcorn
TTITLE11=the Marcels - Blue Moon
TTITLE12=the Marvelettes - Beechwood 4-5789
TTITLE13=Little Stevie Wonder - Fingertips
TTITLE14=Wilbert Harrison - Kansas City
TTITLE15=the Drifters - Ruby Baby
TTITLE16=Jimme Reed - Baby What You Want Me to Do
TTITLE17=Chuck Willis - That Train is Gone
TTITLE18=the Diamonds - Little Darlin'
TTITLE19=H.B. Barnum - Lost Love
TTITLE20=the Impalas - Sorry (I Ran All the Way Home)
TTITLE21=Sam and Dave - Keep A Walkin'
TTITLE22=Fred Parris and the Satins - A Night to Remember
TTITLE23=Bobby Hendricks - Little John Green
TTITLE24=Ruth Brown - It's Love Baby (24 Hours of the Day)
EXTD=
EXTT0=
EXTT1=
EXTT2=
EXTT3=
EXTT4=
EXTT5=
EXTT6=
EXTT7=
EXTT8=
EXTT9=
EXTT10=
EXTT11=
EXTT12=
EXTT13=
EXTT14=
EXTT15=
EXTT16=
EXTT17=
EXTT18=
EXTT19=
EXTT20=
EXTT21=
EXTT22=
EXTT23=
EXTT24=
PLAYORDER=
